<?xml version="1.0" encoding="utf-8"?>
<!-- Generator: Adobe Illustrator 24.2.1, SVG Export Plug-In . SVG Version: 6.00 Build 0)  -->
<svg version="1.1"
	 id="Layer_1" xmlns:cc="http://creativecommons.org/ns#" xmlns:dc="http://purl.org/dc/elements/1.1/" xmlns:inkscape="http://www.inkscape.org/namespaces/inkscape" xmlns:rdf="http://www.w3.org/1999/02/22-rdf-syntax-ns#" xmlns:sodipodi="http://sodipodi.sourceforge.net/DTD/sodipodi-0.dtd" xmlns:svg="http://www.w3.org/2000/svg"
	 xmlns="http://www.w3.org/2000/svg" xmlns:xlink="http://www.w3.org/1999/xlink" x="0px" y="0px" viewBox="0 0 100 100"
	 style="enable-background:new 0 0 100 100;" xml:space="preserve">
<style type="text/css">
	.st0{fill:#FFFFFF;}
</style>
<g>
	<path class="st0" d="M73.7,59.5c-1.3-0.9-3.3-0.5-4.2,0.8C65.2,66.8,58.1,71,50,71s-15.2-4.2-19.5-10.7c-0.8-1-1.8-1.4-2.8-1.3
		c-2.6,0.1-3.4,2.8-2.2,4.7C30.9,71.7,39.8,77,50,77s19.1-5.3,24.5-13.3C75.4,62.3,75,60.4,73.7,59.5z"/>
	<path class="st0" d="M50,4C24.6,4,4,24.6,4,50s20.6,46,46,46s46-20.6,46-46S75.4,4,50,4z M50,90c-22.1,0-40-17.9-40-40
		c0-22.1,17.9-40,40-40s40,17.9,40,40C90,72.1,72.1,90,50,90z"/>
	<polygon class="st0" points="26.9,51.1 34.5,45.3 43.6,48.2 40.4,39.2 46,31.4 36.4,31.7 30.7,23.9 28,33.1 18.9,36.1 26.9,41.5 	
		"/>
	<polygon class="st0" points="72,33.1 69.3,23.9 63.6,31.7 54,31.4 59.6,39.2 56.4,48.2 65.5,45.3 73.1,51.1 73.1,41.5 81.1,36.1 	
		"/>
</g>
</svg>
