<svg height='100px' width='100px'  fill="#FFFFFF" xmlns:dc="http://purl.org/dc/elements/1.1/" xmlns:cc="http://creativecommons.org/ns#" xmlns:rdf="http://www.w3.org/1999/02/22-rdf-syntax-ns#" xmlns:svg="http://www.w3.org/2000/svg" xmlns="http://www.w3.org/2000/svg" xmlns:sodipodi="http://sodipodi.sourceforge.net/DTD/sodipodi-0.dtd" xmlns:inkscape="http://www.inkscape.org/namespaces/inkscape" version="1.1" x="0px" y="0px" viewBox="0 0 100 100"><g transform="translate(0,-952.36218)"><path style="text-indent:0;text-transform:none;direction:ltr;block-progression:tb;baseline-shift:baseline;color:#000000;enable-background:accumulate;" d="m 31.4375,962.36218 c -7.61319,0 -14.10477,3.5828 -18.53125,8.9712 -4.4264801,5.3884 -6.9062501,12.5531 -6.9062501,20.0367 0,12.45792 5.0236201,21.70952 12.7812501,29.28932 7.75763,7.5797 18.1476,13.7576 29.59375,21.2245 a 3.0003,3.0011192 0 0 0 3.25,0 c 11.44615,-7.4669 21.83612,-13.6448 29.59375,-21.2245 C 88.97638,1013.0796 94,1003.828 94,991.37008 c 0,-7.4836 -2.47977,-14.6483 -6.90625,-20.0367 -4.42648,-5.3884 -10.91806,-8.9712 -18.53125,-8.9712 -8.15849,0 -14.61973,3.6062 -18.5625,6.8456 -3.94277,-3.2394 -10.40401,-6.8456 -18.5625,-6.8456 z m 0,6.0016 c 7.47932,0 14.11058,4.532 16.40625,6.8769 a 3.0003,3.0011192 0 0 0 4.3125,0 c 2.29567,-2.3449 8.92693,-6.8769 16.40625,-6.8769 5.76401,0 10.45084,2.5768 13.90625,6.7831 C 85.92416,979.35318 88,985.21838 88,991.37008 88,1002.287 84.02362,1009.5136 77.03125,1016.3457 70.39309,1022.8316 60.82666,1028.7632 50,1035.7885 39.17334,1028.7632 29.60691,1022.8316 22.96875,1016.3457 15.97638,1009.5136 12,1002.287 12,991.37008 c 0,-6.1517 2.07584,-12.0169 5.53125,-16.2232 3.45541,-4.2063 8.14224,-6.7831 13.90625,-6.7831 z" fill="#FFFFFF" fill-opacity="1" stroke="none" marker="none" visibility="visible" display="inline" overflow="visible"></path></g></svg>