<svg height='100px' width='100px'  fill="#696969" xmlns:dc="http://purl.org/dc/elements/1.1/" xmlns:cc="http://creativecommons.org/ns#" xmlns:rdf="http://www.w3.org/1999/02/22-rdf-syntax-ns#" xmlns:svg="http://www.w3.org/2000/svg" xmlns="http://www.w3.org/2000/svg" xmlns:sodipodi="http://sodipodi.sourceforge.net/DTD/sodipodi-0.dtd" xmlns:inkscape="http://www.inkscape.org/namespaces/inkscape" version="1.1" x="0px" y="0px" viewBox="0 0 100 100"><g transform="translate(0,-952.36218)"><path style="text-indent:0;text-transform:none;direction:ltr;block-progression:tb;baseline-shift:baseline;color:#000000;enable-background:accumulate;" d="m 50,956.36218 c -25.3695,0 -46,20.63057 -46,46.00002 0,25.3695 20.6305,46 46,46 25.3695,0 46,-20.6305 46,-46 0,-25.36945 -20.6305,-46.00002 -46,-46.00002 z m 0,6 c 22.1269,0 40,17.87319 40,40.00002 0,22.1269 -17.8731,40 -40,40 -22.1269,0 -40,-17.8731 -40,-40 0,-22.12683 17.8731,-40.00002 40,-40.00002 z m -17,20.99999 c -3.3138,0 -6,2.6863 -6,6 0,3.31371 2.6862,6 6,6 3.3137,0 6,-2.68629 6,-6 0,-3.3137 -2.6863,-6 -6,-6 z m 34,0 c -3.3137,0 -6,2.6863 -6,6 0,3.31371 2.6863,6 6,6 3.3138,0 6,-2.68629 6,-6 0,-3.3137 -2.6862,-6 -6,-6 z m -17,24.00003 c -10.1535,0 -19.1374,5.2908 -24.5,13.3125 a 3.0075182,3.0075182 0 1 0 5,3.3437 c 4.3312,-6.4789 11.4317,-10.6562 19.5,-10.6562 8.0683,0 15.1688,4.1773 19.5,10.6562 a 3.0075182,3.0075182 0 1 0 5,-3.3437 C 69.1374,1012.653 60.1535,1007.3622 50,1007.3622 z" fill="#696969" fill-opacity="1" stroke="none" marker="none" visibility="visible" display="inline" overflow="visible"></path></g></svg>