<svg height='100px' width='100px'  fill="#FFFFFF" xmlns:dc="http://purl.org/dc/elements/1.1/" xmlns:cc="http://creativecommons.org/ns#" xmlns:rdf="http://www.w3.org/1999/02/22-rdf-syntax-ns#" xmlns:svg="http://www.w3.org/2000/svg" xmlns="http://www.w3.org/2000/svg" xmlns:sodipodi="http://sodipodi.sourceforge.net/DTD/sodipodi-0.dtd" xmlns:inkscape="http://www.inkscape.org/namespaces/inkscape" version="1.1" x="0px" y="0px" viewBox="0 0 100 100"><g transform="translate(0,-952.36218)"><path style="text-indent:0;text-transform:none;direction:ltr;block-progression:tb;baseline-shift:baseline;color:#000000;enable-background:accumulate;" d="m 50,956.36215 c -25.3695,0 -46,20.63057 -46,46.00005 0,25.3695 20.6305,46 46,46 25.3695,0 46,-20.6305 46,-46 0,-25.36948 -20.6305,-46.00005 -46,-46.00005 z m 0,6 c 22.1269,0 40,17.87323 40,40.00005 0,22.1269 -17.8731,40 -40,40 -22.1269,0 -40,-17.8731 -40,-40 0,-22.12682 17.8731,-40.00005 40,-40.00005 z m -17,21 c -3.3138,0 -6,2.68631 -6,6 0,3.31369 2.6862,6 6,6 3.3137,0 6,-2.68631 6,-6 0,-3.31369 -2.6863,-6 -6,-6 z m 34,0 c -3.3137,0 -6,2.68631 -6,6 0,3.31369 2.6863,6 6,6 3.3138,0 6,-2.68631 6,-6 0,-3.31369 -2.6862,-6 -6,-6 z m -39.3125,28.00005 c -2.6476,0.1192 -3.3955,2.8425 -2.1875,4.6562 5.3626,8.0217 14.3465,13.3438 24.5,13.3438 10.1535,0 19.1374,-5.3221 24.5,-13.3438 0.8754,-1.309 0.4965,-3.2808 -0.8125,-4.1562 -1.309,-0.8754 -3.3121,-0.4965 -4.1875,0.8125 -4.3312,6.4789 -11.4317,10.6875 -19.5,10.6875 -8.0683,0 -15.1688,-4.2086 -19.5,-10.6875 -0.8122,-0.9528 -1.8486,-1.3688 -2.8125,-1.3125 z" fill="#FFFFFF" fill-opacity="1" stroke="none" marker="none" visibility="visible" display="inline" overflow="visible"></path></g></svg>