<svg height='100px' width='100px'  fill="#696969" xmlns:x="http://ns.adobe.com/Extensibility/1.0/" xmlns:i="http://ns.adobe.com/AdobeIllustrator/10.0/" xmlns:graph="http://ns.adobe.com/Graphs/1.0/" xmlns="http://www.w3.org/2000/svg" xmlns:xlink="http://www.w3.org/1999/xlink" version="1.1" x="0px" y="0px" viewBox="0 0 100 100" style="enable-background:new 0 0 100 100;" xml:space="preserve"><g><g i:extraneous="self"><g><path d="M50.7,4.4L26.2,2.5c-2.7-0.2-4.6,2.7-3.4,5.1l2.6,4.9C13.2,20.5,5.1,34.3,5.1,50c0,18.8,11.6,34.9,28,41.6     c1.3,0.5,2.7-0.4,2.7-1.8V77.3c0-0.7-0.4-1.4-1-1.7C26.1,70.4,20.3,60.9,20.3,50c0-9.9,4.8-18.6,12.2-24l2.4,4.7     c1.3,2.4,4.7,2.5,6.1,0.1L53.4,9.6C54.7,7.4,53.3,4.6,50.7,4.4z"></path><path d="M94.9,50c0-18.8-11.6-34.9-28-41.6c-1.3-0.5-2.7,0.4-2.7,1.8v12.4c0,0.7,0.4,1.4,1,1.7c8.7,5.2,14.6,14.7,14.6,25.6     c0,9.9-4.8,18.6-12.2,24l-2.4-4.7c-1.3-2.4-4.7-2.5-6.1-0.1L46.6,90.4c-1.3,2.2,0.2,5,2.7,5.2l24.4,1.9c2.7,0.2,4.6-2.7,3.4-5.1     l-2.6-4.9C86.8,79.5,94.9,65.7,94.9,50z"></path></g></g></g></svg>