<svg height='100px' width='100px' fill="#FFFFFF" xmlns="http://www.w3.org/2000/svg" xmlns:xlink="http://www.w3.org/1999/xlink" version="1.1" x="0px" y="0px" viewBox="0 0 100 100" enable-background="new 0 0 100 100" xml:space="preserve"><path d="M76.286,49.03c-1.064-4.642-2.938-8.883-5.421-12.928c-1.396-2.275-2.88-4.545-3.39-7.21  c-0.627-3.175-1.12-6.373-1.637-9.567c-0.422-2.613-0.845-5.231-1.428-7.813c-0.396-1.752-0.844-3.553-1.678-5.156  c-0.531-1.022-1.294-2.017-2.432-2.385c-2.292-0.74-4.234,1.373-5.47,3.009c-3.875,5.135-4.466,11.885-3.931,18.099  c0.438,5.075,1.608,10.112,3.265,14.924l-9.103,0.186c-4.301,0.009-8.605-0.109-12.905,0.026c-3.135,0.099-6.563,0.219-9.454,1.572  c-2.753,1.289-4.211,3.785-4.331,6.784c-0.124,3.097,1.042,5.927,3.91,7.338c-4.239,2.384-4.318,8.863-0.503,11.689  c-4.167,2.852-3.275,8.904,0.847,11.301c-2.256,3.031-1.71,7.315,1.533,9.422c2.87,1.864,6.761,1.812,10.008,1.243  c5.251,0.677,10.537,1.222,15.834,1.332c4.511,0.094,9.167-0.077,13.493-1.476c3.247-1.049,6.302-2.711,8.623-5.249  c2.422-2.646,3.94-5.983,4.83-9.432C79.092,66.431,78.184,57.308,76.286,49.03C74.777,42.449,77.963,56.345,76.286,49.03z   M21.147,48.892c0.059-3.333,1.889-4.82,5.982-5.469v0.002c3.48,0.116,7.075,0.771,10.358,1.912  c2.177,0.756,4.448,1.784,5.951,3.595c0.803,0.967,1.34,2.185,0.821,3.419c-0.58,1.381-1.946,2.372-3.177,3.138  c-4.894-0.821-9.847-0.947-12.748-0.933l-0.44-0.061C23.769,53.914,21.071,53.209,21.147,48.892  C21.206,45.559,21.071,53.209,21.147,48.892z M27.093,57.36c2.57-0.052,8.907-0.036,14.705,1.087  c2.473,1.696,4.154,6.376,0.446,7.643c-0.542,0.191-1.938,0.252-2.166,0.269l-13.934,0.042l-0.593-0.105  c-2.177-0.387-3.743-2.1-3.752-4.334C21.787,58.744,24.274,57.781,27.093,57.36C29.663,57.309,23.023,57.968,27.093,57.36z   M42.395,68.849c1.973,0.306,3.21,1.499,2.638,3.561c-0.631,2.273-3.093,3.485-5.171,4.101c-4.429,1.311-9.396,1.181-13.944,0.668  l-0.551-0.133c-1.417-0.342-2.791-1.366-3.31-2.749c-0.88-2.347,0.539-4.461,2.809-5.107 M24.453,84.669  c-1.205-2.193,0.171-3.974,0.967-4.75c5.307,0.606,11.202,0.772,16.288-1.099c1.455,0.293,2.498,1.284,1.87,2.784  c-0.507,1.212-1.663,2.061-2.766,2.694c-2.329,1.338-5.09,2.157-7.741,2.547l0.011,0.073C28.906,87.524,25.497,86.663,24.453,84.669  C23.248,82.476,25.497,86.663,24.453,84.669z M65.591,85.584c-3.918,1.855-9.141,3.49-24.891,1.929  c1.998-0.911,4.03-2.198,5.133-4.163c1.186-2.114,0.976-4.659-1.049-6.153c3.084-2.313,4.659-7.481,0.949-10.017  c2.901-2.967,1.201-8.071-1.595-10.438c2.944-2.351,4.158-5.887,1.803-9.12c-1.676-2.301-4.262-3.689-6.87-4.673  c2.008,0.01,4.015,0.023,6.022,0.022l8.936-0.182c-1.724,5.818-2.833,12.195-1.871,18.245c0.525,3.304,1.802,6.556,4.24,8.918  c2.528,2.448,5.964,3.566,9.415,3.832l0.213-2.775c-3.892-0.3-7.515-1.892-9.485-5.407c-1.678-2.992-2.02-6.589-1.912-9.959  c0.151-4.728,1.108-9.626,2.719-14.083l0.18-0.495l-0.192-0.489c-1.952-4.984-3.175-10.439-3.642-15.759  c-0.354-4.026-0.239-8.248,1.154-12.084c0.709-1.952,1.793-3.865,3.282-5.33c0.326-0.321,1.03-1.086,1.521-0.649  c1.242,1.11,1.604,3.44,1.96,4.952c0.681,2.894,1.128,5.843,1.598,8.777c0.496,3.095,0.945,6.212,1.605,9.277  c0.573,2.663,1.945,4.979,3.358,7.272c2.469,4.004,4.376,8.109,5.426,12.721c0.58,2.546,1.021,5.125,1.325,7.718  C76.055,67.104,75.784,80.754,65.591,85.584C61.673,87.439,79.168,79.151,65.591,85.584z"></path></svg>